<svg id="Layer_1" data-name="Layer 1" xmlns="http://www.w3.org/2000/svg" viewBox="0 0 100 100"><defs><style>.cls-1{fill:none;}.cls-2{fill:#333;}</style></defs><title>algolia</title><path class="cls-1" d="M22.89,53.55A28.26,28.26,0,1,0,51.14,25.29,28.25,28.25,0,0,0,22.89,53.55Zm48.17,0A19.91,19.91,0,1,1,51.14,33.62,19.9,19.9,0,0,1,71.05,53.53Z"/><path class="cls-1" d="M51.14,52.57a.58.58,0,0,0,.85.51l13.15-6.83a.62.62,0,0,0,.25-.83,16.42,16.42,0,0,0-13.64-8.28.58.58,0,0,0-.6.58Z"/><path class="cls-1" d="M41.61,22.43a.59.59,0,0,0,.76.56,31.34,31.34,0,0,1,8.79-1.23,31.89,31.89,0,0,1,8.5,1.14.57.57,0,0,0,.74-.56V18.91a4.34,4.34,0,0,0-4.35-4.35H45.94a4.34,4.34,0,0,0-4.35,4.35h0Z"/><path class="cls-1" d="M24.47,35a.58.58,0,0,0,.89-.07A32,32,0,0,1,28.67,31a32.58,32.58,0,0,1,3.93-3.33.6.6,0,0,0,.07-.89l-1.72-1.72a4.34,4.34,0,0,0-6.14,0l-2.05,2.05a4.31,4.31,0,0,0,0,6.12Z"/><path class="cls-2" d="M13.11,100H86.79A13.14,13.14,0,0,0,99.94,86.85V13.15A13.12,13.12,0,0,0,86.81,0H13.11A13.16,13.16,0,0,0,0,13.15V86.83A13.16,13.16,0,0,0,13.11,100ZM79.4,53.55A28.26,28.26,0,1,1,51.14,25.29,28.28,28.28,0,0,1,79.4,53.55Zm-33.46-39H56.05a4.34,4.34,0,0,1,4.35,4.35v3.44a.57.57,0,0,1-.74.56,31.89,31.89,0,0,0-8.5-1.14A31.34,31.34,0,0,0,42.37,23a.59.59,0,0,1-.76-.56V18.91h0A4.34,4.34,0,0,1,45.94,14.55ZM22.75,27.17l2.05-2.05a4.34,4.34,0,0,1,6.14,0l1.72,1.72a.6.6,0,0,1-.07.89A32.58,32.58,0,0,0,28.67,31a32,32,0,0,0-3.3,3.88.58.58,0,0,1-.89.07l-1.72-1.72A4.31,4.31,0,0,1,22.75,27.17Z"/><path class="cls-2" d="M31.23,53.53A19.91,19.91,0,1,0,51.14,33.62,19.9,19.9,0,0,0,31.23,53.53ZM51.75,37.14a16.42,16.42,0,0,1,13.64,8.28.62.62,0,0,1-.25.83L52,53.08a.58.58,0,0,1-.85-.51V37.72A.58.58,0,0,1,51.75,37.14Z"/></svg>