<svg id="Layer_1" data-name="Layer 1" xmlns="http://www.w3.org/2000/svg" viewBox="0 0 100 100"><defs><style>.cls-1{fill:none;}.cls-2{fill:#333;}</style></defs><title>less</title><path class="cls-1" d="M30.44,48.8h8.88c0-2.8-1.16-4.84-4.11-4.84C32.91,44,30.94,45.52,30.44,48.8Z"/><path class="cls-2" d="M0,52.15c3.2.08,4.27,1.89,4.27,3.61,0,3-.5,4.84-.5,8.38,0,5.34,2,7.06,6.33,7.06h3.2V67.42h-1c-2,0-2.7-.83-2.7-3.53s.25-5,.25-8c0-3.78-1.23-5.25-3.69-5.83v-.25c2.47-.58,3.69-2,3.69-5.83,0-3-.25-5.34-.25-8s.58-3.45,2.7-3.45h2.2V56c0,5,1.72,8.3,6.74,8.3a10.76,10.76,0,0,0,3.69-.58l-.83-5.34a3.28,3.28,0,0,1-1,.13c-.58,0-1.31-.5-1.31-2V28.6H10.17c-4.44,0-6.41,1.72-6.41,7.06,0,3.53.5,5.5.5,8.53,0,1.72-1.06,3.53-4.27,3.69Z"/><path class="cls-2" d="M95.73,44.21c0-3.2.5-5.09.5-8.53,0-5.34-2-7.06-6.33-7.06H86.7V32.4h1c2.22,0,2.7.73,2.7,3.45,0,2.55-.25,5.09-.25,8,0,3.78,1.23,5.25,3.69,5.83V50c-2.47.58-3.69,2-3.69,5.83,0,3,.25,5.34.25,8s-.58,3.53-2.7,3.53v.08h-1V71.4h3.2c4.34,0,6.33-1.72,6.33-7.06,0-3.53-.5-5.34-.5-8.53,0-1.72,1.06-3.53,4.27-3.69V47.85C96.8,47.74,95.73,45.93,95.73,44.21Z"/><path class="cls-2" d="M56.15,59a10.35,10.35,0,0,1-6.33-2.55l-3.2,4.77A15.85,15.85,0,0,0,56,64.65c6.56,0,10.1-3.45,10.1-8s-3.52-6.41-6.72-7.47c-2.55-1-4.84-1.56-4.84-3.2,0-1.23,1-2,2.8-2a8.82,8.82,0,0,1,5.25,2l3.28-4.34a13.93,13.93,0,0,0-8.63-3.2c-5.58,0-9.36,3.2-9.36,7.72,0,4,3.53,6.08,6.49,7.22,2.55,1,5,1.81,5,3.45C59.35,58.17,58.37,59,56.15,59Z"/><path class="cls-2" d="M23.55,51.35c0,8.13,5.34,12.89,12.39,12.89a16.28,16.28,0,0,0,8.78-2.8L42.26,57.1a10.31,10.31,0,0,1-5.34,1.56c-3.28,0-5.83-1.56-6.49-5.34H45.3a21.63,21.63,0,0,0,.25-3c.09-6.66-3.53-11.83-10.42-11.83h0C29.13,38.46,23.39,43.48,23.55,51.35ZM35.21,44c3,0,4.11,2,4.11,4.84H30.44C30.94,45.52,32.91,44,35.21,44Z"/><path class="cls-2" d="M79.23,49.21c-2.47-1-4.77-1.56-4.77-3.2,0-1.23,1-2,2.8-2a8.82,8.82,0,0,1,5.25,2l3.28-4.34a13.93,13.93,0,0,0-8.63-3.2c-5.58,0-9.36,3.2-9.36,7.72,0,4,3.53,6.08,6.49,7.22,2.55,1,5,1.81,5,3.45,0,1.23-1,2-3.2,2a10.35,10.35,0,0,1-6.33-2.55L66.49,61.2a15.85,15.85,0,0,0,9.36,3.45c6.56,0,10.1-3.45,10.1-8S82.43,50.27,79.23,49.21Z"/></svg>