<svg xmlns="http://www.w3.org/2000/svg" id="draw.id" overflow="visible" v:ver="3" v:layers="{&quot;default&quot;:{&quot;name&quot;:&quot;Default&quot;,&quot;print&quot;:0,&quot;display&quot;:1,&quot;publish&quot;:0},&quot;jx575u50pt&quot;:{&quot;name&quot;:&quot;Untitled layer&quot;,&quot;print&quot;:1,&quot;display&quot;:1,&quot;publish&quot;:1}}" x="500.5" y="500.5" v:stencils="{&quot;0&quot;:{&quot;id&quot;:&quot;stencil_1&quot;,&quot;expand&quot;:1,&quot;show_name&quot;:1},&quot;1&quot;:{&quot;id&quot;:&quot;stencil_0&quot;,&quot;expand&quot;:0,&quot;show_name&quot;:1}}" xmlns:v="http://vecta.io"><style xmlns="http://www.w3.org/1999/xhtml"><![CDATA[#draw\.id{stroke:#000;stroke-linecap:round;stroke-linejoin:round;fill:#fff;fill-rule:evenodd;font-family:Roboto;font-size:14px;text-anchor:middle}#draw\.id text{paint-order:stroke}#draw\.id .Text\.cls{stroke:none}]]></style><defs><style type="text/css">@import url('https://fonts.googleapis.com/css?family=Roboto+Condensed:400,400i,700,700i');@import url('https://fonts.googleapis.com/css?family=Roboto:400,400i,700,700i');@import url('https://fonts.googleapis.com/css?family=Cousine:400,400i,700,700i');@import url('https://fonts.googleapis.com/css?family=Anonymous+Pro:400,400i,700,700i');@import url('https://fonts.googleapis.com/css?family=Lato:400,400i,700,700i');@import url('https://fonts.googleapis.com/css?family=Open+Sans:400,400i,700,700i');</style><linearGradient id="L00100100000aaff10000387f.grad" x1="0%" y1="0%" x2="100%" y2="100%"><stop offset="0%" stop-color="#00aaff" stop-opacity="1"/><stop offset="100%" stop-color="#00387f" stop-opacity="1"/></linearGradient><linearGradient id="L001001000808080100000000.grad" x1="0%" y1="0%" x2="100%" y2="100%"><stop offset="0%" stop-color="#808080" stop-opacity="1"/><stop offset="100%" stop-color="#000000" stop-opacity="1"/></linearGradient><linearGradient id="L001001000808080100100000000100.grad" x1="0%" y1="0%" x2="100%" y2="100%"><stop offset="0%" stop-color="#808080" stop-opacity="1"/><stop offset="100%" stop-color="#000000" stop-opacity="1"/></linearGradient><linearGradient id="L001001000f1a9eb100672965.grad" x1="0%" y1="0%" x2="100%" y2="100%"><stop offset="0%" stop-color="#f1a9eb" stop-opacity="1"/><stop offset="100%" stop-color="#672965" stop-opacity="1"/></linearGradient><linearGradient id="L001001000ffd194100d1913c.grad" x1="0%" y1="0%" x2="100%" y2="100%"><stop offset="0%" stop-color="#ffd194"/><stop offset="100%" stop-color="#d1913c"/></linearGradient><linearGradient id="L06710033090a4ae100ECEFF1.grad" x1="0%" y1="67%" x2="100%" y2="33%"><stop offset="0%" stop-color="#90a4ae"/><stop offset="100%" stop-color="#ECEFF1"/></linearGradient><linearGradient id="L0941006090a4ae100B0BEC5.grad" x1="0%" y1="94%" x2="100%" y2="6%"><stop offset="0%" stop-color="#90a4ae"/><stop offset="100%" stop-color="#B0BEC5"/></linearGradient><linearGradient id="L100100000578fff1008ab1ff.grad" x1="100%" y1="100%" x2="0%" y2="0%"><stop offset="0%" stop-color="#578fff"/><stop offset="100%" stop-color="#8ab1ff"/></linearGradient><linearGradient id="L10010000057c7ff1008ad8ff.grad" x1="100%" y1="100%" x2="0%" y2="0%"><stop offset="0%" stop-color="#57c7ff"/><stop offset="100%" stop-color="#8ad8ff"/></linearGradient><linearGradient id="L10010000057ffff1008affff.grad" x1="100%" y1="100%" x2="0%" y2="0%"><stop offset="0%" stop-color="#57ffff"/><stop offset="100%" stop-color="#8affff"/></linearGradient><linearGradient id="L1001000008fff57100b1ff8a.grad" x1="100%" y1="100%" x2="0%" y2="0%"><stop offset="0%" stop-color="#8fff57"/><stop offset="100%" stop-color="#b1ff8a"/></linearGradient><linearGradient id="L100100000c757ff100d88aff.grad" x1="100%" y1="100%" x2="0%" y2="0%"><stop offset="0%" stop-color="#c757ff"/><stop offset="100%" stop-color="#d88aff"/></linearGradient><linearGradient id="L100100000c7ff57100d8ff8a.grad" x1="100%" y1="100%" x2="0%" y2="0%"><stop offset="0%" stop-color="#c7ff57"/><stop offset="100%" stop-color="#d8ff8a"/></linearGradient><linearGradient id="L100100000ff578f100ff8ab1.grad" x1="100%" y1="100%" x2="0%" y2="0%"><stop offset="0%" stop-color="#ff578f"/><stop offset="100%" stop-color="#ff8ab1"/></linearGradient><linearGradient id="L100100000ff57e3100ff8aeb.grad" x1="100%" y1="100%" x2="0%" y2="0%"><stop offset="0%" stop-color="#ff57e3"/><stop offset="100%" stop-color="#ff8aeb"/></linearGradient><linearGradient id="L100100000ff7357100ff9d8a.grad" x1="100%" y1="100%" x2="0%" y2="0%"><stop offset="0%" stop-color="#ff7357"/><stop offset="100%" stop-color="#ff9d8a"/></linearGradient><linearGradient id="L100100000ffab57100ffc48a.grad" x1="100%" y1="100%" x2="0%" y2="0%"><stop offset="0%" stop-color="#ffab57"/><stop offset="100%" stop-color="#ffc48a"/></linearGradient><linearGradient id="L100100000ffe357100ffeb8a.grad" x1="100%" y1="100%" x2="0%" y2="0%"><stop offset="0%" stop-color="#ffe357"/><stop offset="100%" stop-color="#ffeb8a"/></linearGradient><linearGradient id="L100100000ffff57100ffff8a.grad" x1="100%" y1="100%" x2="0%" y2="0%"><stop offset="0%" stop-color="#ffff57"/><stop offset="100%" stop-color="#ffff8a"/></linearGradient><linearGradient id="L170831000E0E0E0100757575.grad" x1="17%" y1="0%" x2="83%" y2="100%"><stop offset="0%" stop-color="#E0E0E0"/><stop offset="100%" stop-color="#757575"/></linearGradient><linearGradient id="L5005010004387FD1004683EA.grad" x1="50%" y1="0%" x2="50%" y2="100%"><stop offset="0%" stop-color="#4387FD"/><stop offset="100%" stop-color="#4683EA"/></linearGradient><linearGradient id="L611003900000000100100808080100.grad" x1="61%" y1="100%" x2="39%" y2="0%"><stop offset="0%" stop-color="#000000" stop-opacity="1"/><stop offset="100%" stop-color="#808080" stop-opacity="1"/></linearGradient><clipPath id="jw8nw00y2b8.clip"><path d="M 0 15 C 0 6.69 6.69 0 15 0 L 399 0 C 407.31 0 414 6.69 414 15 L 414 813 C 414 821.31 407.31 828 399 828 L 15 828 C 6.69 828 0 821.31 0 813 Z" stroke="hsla(0,0%,100%,1)" stroke-width="1" transform="translate(0 0)"/></clipPath><clipPath id="jw8nwu5f2en.clip"><path d="M 480 947.0445 C 480 966 463.5 986 440.1188 986 L 40.1346 986 C 10 986 0 960 0 949.9712 L 0 39.7345 C 0 16 20 0 39.7865 0 L 130.3007 0 C 139.25 0 145 7.75 145 14.1357 L 145 14 C 145 30.62 158.38 44 175 44 L 305 44 C 321.62 44 335 30.62 335 14 L 335 13.8857 C 335 8.75 340 0 349.9493 0 L 439.7751 0 C 464.5 0 480 20.5 480 39.9367 Z" stroke="hsla(0,0%,100%,1)" stroke-width="1" transform="translate(0 0)"/></clipPath><clipPath id="jw8nxjem3h1.clip"><path d="M 0 40 C 0 17.84 17.84 0 40 0 L 374 0 C 396.16 0 414 17.84 414 40 L 414 834 C 414 856.16 396.16 874 374 874 L 40 874 C 17.84 874 0 856.16 0 834 Z" stroke="hsla(0,0%,100%,1)" transform="translate(1.1517835812563817 3)"/></clipPath><clipPath id="jw8ny4f43i0.clip"><path d="M 0 40 C 0 17.84 17.84 0 40 0 L 440 0 C 462.16 0 480 17.84 480 40 L 480 973 C 480 995.16 462.16 1013 440 1013 L 40 1013 C 17.84 1013 0 995.16 0 973 Z" stroke="hsla(0,0%,100%,1)" stroke-width="1" transform="translate(6 8.642899999999997)"/></clipPath><clipPath id="jw8o1udg4wt.clip"><path d="M 43.54657451923149 0 L 149.36523437499966 0 C 180.34197716346247 0 180.34197716346247 30.062344341105906 206.68347355769168 30.062344341105906 C 233.02496995192348 30.062344341105906 233.02496995192348 0 264.0775615985576 0 L 375.48191105769286 0 C 390.62403846153893 0 396.11487379807704 1.5754000230444005 401.65063100961584 4.533742296454201 C 407.18638822115395 7.4920414082198015 411.530851862981 11.833239608706302 414.4913762019235 17.364835963593304 C 417.45190054086584 22.896389156836005 419.02848557692346 28.383140563119007 419.02848557692346 43.51388664745901 L 419.02848557692346 839.0223144317017 C 419.02848557692346 854.1529741927511 417.45190054086584 859.6397687606808 414.4913762019235 865.171365115567 C 411.530851862981 870.7028751471631 407.18638822115395 875.0440733476512 401.65063100961584 878.0024587827053 C 396.11487379807704 880.9607578944717 390.62403846153893 882.5361579175152 375.48191105769286 882.5361579175152 L 43.54657451923149 882.5361579175152 C 28.404447115384198 882.5361579175152 22.913611778847397 880.9607578944717 17.377854567307896 878.0024587827053 C 11.842097355768498 875.0440733476512 7.497633713942099 870.7028751471631 4.537109374999999 865.171365115567 C 1.5765850360578997 859.6397687606808 0 854.1529741927511 0 839.0223144317017 L 0 43.51388664745901 C 0 28.383140563119007 1.5765850360578997 22.896389156836005 4.537109374999999 17.364835963593304 C 7.497633713942099 11.833239608706302 11.842097355768498 7.4920414082198015 17.377854567307896 4.533742296454201 C 22.913611778847397 1.5754000230444005 28.404447115384198 0 43.54657451923149 0 Z" fill="hsla(0,0%,20%,1)" stroke="none" transform="translate(0 0)"/></clipPath><clipPath id="jw8pi2jcloi.clip"><path d="M 335.8927317333333 814.0000000000001 C 362.464 814.0000000000001 376 790.972109720438 376 774.0900697557959 L 376 39.9095124786729 C 376 15.5326649749132 354.944 0.0138998239484 336.1203370666667 0.0138998239484 L 298.2586410666667 0.0138998239484 C 296.288 0.0138998239484 292.7786666666667 2.3917210306186 292.7943082666667 5.7074945327155 C 292.7786666666667 7.1475636899658 292.7786666666667 8.3184020911954 292.7786666666667 10.0259999134094 C 292.7786666666667 21.1194284391008 283.83488 30.0503002153345 272.7253333333333 30.0503002153345 L 103.2746666666667 30.0503002153345 C 92.16512 30.0503002153345 83.2213333333333 21.1194284391008 83.2213333333333 10.0259999134094 C 83.2213333333333 7.9584598941353 83.2213333333333 8.5241548630892 83.2320618666667 6.3454783100915 C 83.2213333333333 2.0162597680386 79.8373333333333 0.0138998239484 77.4965077333333 0.0138998239484 L 39.9373162666667 0.0138998239484 C 23.0613333333333 -0.4867151928249 0 12.5290749972763 0 40.0629009198122 L 0 774.0901698787992 C 0 797.9806198322619 19.552 814.0000000000001 40.107168 814.0000000000001 Z" stroke="hsla(0,0%,100%,1)" stroke-width="1" transform="translate(1.6289867642501576 1)"/></clipPath><clipPath id="jw8pmnlrt78.clip"><path d="M 369.8393 895.9999976352831 C 399.096 895.9999976352831 414 870.652297635283 414 852.0696976352831 L 414 43.9298976352831 C 414 17.097397635283 390.816 0.015297635283 370.0899 0.015297635283 L 328.4018 0.015297635283 C 326.232 0.015297635283 322.368 2.632697635283 322.3852 6.282497635283 C 322.368 7.867597635283 322.368 9.156397635283 322.368 11.035997635283 C 322.368 23.246897635283 312.5203 33.0774976352831 300.288 33.0774976352831 L 113.712 33.0774976352831 C 101.4797 33.0774976352831 91.632 23.246897635283 91.632 11.035997635283 C 91.632 8.760197635283 91.632 9.382897635283 91.6438 6.984697635283 C 91.632 2.219397635283 87.906 0.015297635283 85.3286 0.015297635283 L 43.9735 0.015297635283 C 25.392 -0.535702364717 0 13.791197635283 0 44.0986976352831 L 0 852.0697976352831 C 0 878.3668976352831 21.528 895.9999976352831 44.1606 895.9999976352831 Z" stroke="hsla(0,0%,100%,1)" stroke-width="1" transform="translate(0.9199223449481906 1.0000011823585737)"/></clipPath><clipPath id="jw8uzo6nb9b.clip"><rect x="0" y="0" width="480" height="1040" stroke-width="0.2" stroke="none" rx="40" class="" transform="translate(0.999964282226756 1.16666664971126)"/></clipPath><clipPath id="jwpugewnio.clip"><path d="M 0 0 L 375 0 L 375 667 L 0 667 Z" fill="hsla(240,8%,12%,1)" fill-opacity="1" stroke="hsla(0,0%,75%,1)" stroke-linejoin="miter" stroke-width="1" transform="translate(146.49997790527343 1)"/></clipPath><clipPath id="jwpuhbtxk8.clip"><path d="M 0 0 L 414 0 L 414 736 L 0 736 Z" stroke="hsla(0,0%,75%,1)" stroke-linejoin="miter" stroke-width="1" transform="translate(161.99995786132808 1)"/></clipPath><g id="many.end"><path d="M -5 0 L 0 7.5 L 5 0" fill="none"/></g></defs><title xmlns="http://www.w3.org/1999/xhtml">Untitled drawing</title><desc xmlns="http://www.w3.org/1999/xhtml"></desc><svg id="kkoc4qq611s" width="594.0000000000001" height="420.00000000000006" viewBox="0 0 1122.5197162628174 793.7008094787598" overflow="visible" v:setup="{&quot;paper&quot;:&quot;CUSTOM&quot;,&quot;unit&quot;:&quot;m&quot;,&quot;scale&quot;:{&quot;from&quot;:&quot;1&quot;,&quot;to&quot;:&quot;1&quot;},&quot;width&quot;:&quot;297mm&quot;,&quot;height&quot;:&quot;210mm&quot;}" zoom="{&quot;level&quot;:0.5291666519476312,&quot;scroll_x&quot;:226,&quot;scroll_y&quot;:465}" style="display: inline-block;"><g id="kmaxr050gi" transform="translate(245.66929817199707 94.48819160461426)" class="NoPrint.cls"><path d="M 409.05664968848134 270.4068642727488 C 384.8990205312908 269.8640572481155 366.1580193483093 271.8615255908877 350.45020063536816 277.1918239392517 C 345.9274573859415 278.6573559205771 338.66944911725056 278.6573559205771 338.0735347922257 283.2494102328812 C 340.4907882218054 285.176358084808 340.7818487793307 288.33002503839873 342.9009200132218 291.00055615191883 C 346.5233717109666 295.84771866021117 352.87412563676 302.3775914876281 358.60897699658506 305.76462531083513 L 377.93898266235743 316.90825106312406 C 389.71973418047577 322.7161751708093 403.0105112597669 326.1086550040606 414.4866208063146 331.92200376488756 C 421.13534513186585 335.314483598139 427.77742436009726 339.6731496839253 434.4259104152272 343.30988840688116 C 437.81130951773093 345.24768556509133 439.8627913752934 348.40128844797647 444.09450054168707 349.60630893707275 L 444.09450054168707 348.87355362486164 C 441.98207440511527 346.7023682401325 441.3726051405364 343.5541259396834 439.26687705026865 341.1224077058239 L 430.19443951925604 334.10405981280246 C 421.43998710343595 324.6593542683577 410.5597918819133 316.419711926813 398.7788285678651 309.6456015665943 C 389.110476711827 304.31536728893616 367.97244861063126 297.05271779240564 364.0456196862296 288.0965727411742 L 363.44991715713496 287.5537870734427 C 370.08508654313266 287.011001405712 377.93898266235743 285.1274934927252 384.2897630626419 283.6728108176845 C 394.567584183259 281.5016254329553 403.9244106999847 281.9792511922762 414.4866208063146 279.80264115440514 L 428.99593929739416 276.4101613211537 L 428.99593929739416 274.23899729332715 C 423.55927013325805 269.88035256444385 419.63222941292616 264.0670038036167 413.8976163235228 259.9525752506333 C 398.49441310766065 249.29748863465545 381.5680794574229 238.8812362552404 364.0456196862296 230.1639040836691 C 354.6819098017617 225.3221662285182 342.5963045161435 222.16849927492711 332.63000873483867 218.05951673198766 C 328.9942138934707 216.6048127000444 322.9616568788007 215.87746068407262 320.8492572167212 213.4565917564976 C 315.3988213171007 208.13720678512394 312.3860771543566 201.1080095858181 308.45900995953326 194.80612168868015 L 283.6921233336938 152.6687936018791 C 278.25548064404916 143.2241414496894 274.9243277742509 133.77945726214608 268.2891583882533 125.0621678043787 C 237.17127956619873 83.8910046132098 203.33195540934662 58.94952798989136 151.37424391903062 34.48565843860453 C 140.20297490273745 29.399667032974772 126.91219782344616 27.212180992692293 112.78200728525348 24.55246715010333 L 90.12751370287103 23.57545294818726 C 85.28656030507531 21.88192535813251 80.45916846545609 17.279011061093247 76.22747253630854 15.09695234356554 C 59.00985329536995 6.379636189670607 14.601410844610454 -12.509688136805092 1.9065505723277343 12.382978621492796 C -6.251985450147279 28.124083339227838 13.992150066650774 43.620921158420096 20.864345573398076 51.61632062793644 C 26.00993101482934 57.18541583828425 32.64509212754863 63.481857725378376 36.28086711304817 69.77829961247228 C 38.31210922199971 73.89270146932805 38.98918771877602 78.25679754748144 41.10848067653224 82.6154636332671 C 45.93587251615142 93.27056092769598 50.47219717962311 105.14153869595644 56.816289461538915 115.07468727065334 C 60.20147014948969 120.16070537241079 63.756087581860896 125.4964070170148 67.98777689238554 130.09389666091207 C 70.4048119074124 132.8078890702741 74.63628280338375 133.96945894197964 75.53683248135586 138.3281143493144 C 71.30513655220834 143.17528753605805 71.0140693760607 150.4324589871912 68.59704097965663 156.4955233262177 C 57.71662072495773 183.86333624405756 61.948316654105156 217.7664359640053 77.35149339547648 237.9150500027065 C 82.19244679327218 243.96721164319376 93.60074854893786 257.29287208649555 109.07841789024864 252.2014293315959 C 122.67383032248713 247.84276324581035 119.6406478524471 234.0394343293834 123.56749001409418 221.92966503836453 C 124.48160125024283 219.02570298452198 123.87211874841844 217.08792718321385 125.67988967617413 215.14470537186153 L 125.67988967617413 215.68751239649487 L 138.0701104588706 235.7872832000155 C 147.43383358058435 247.65281495823191 163.75112155810413 260.0068644958574 177.33964400397747 268.24650683740174 C 184.58407085862365 272.6051729231881 190.3255673157686 280.1175059625642 199.38466170315817 282.7771877698 L 199.38466170315817 282.04441110068643 L 198.7889591740635 282.04441110068643 C 196.97429164132004 279.87320435905565 194.25263451059178 278.8961688002378 191.83538108101183 277.20265188863385 C 186.39872515412148 272.8440071597501 180.3592582972183 267.5137301682883 176.12778740124685 262.67199231313765 C 163.4462677906038 249.11292228641503 152.27478697837995 234.0937449315098 142.301806388018 218.59692046038145 C 137.46085299022226 211.09001207414633 133.22915706107494 202.85579438574413 129.3156580430508 195.3489073564113 C 127.48766060392998 192.4395420063288 127.48766060392998 188.07545126740118 124.47470464525503 186.6316178986439 C 119.93837998178361 191.95100287001773 113.3032238330312 196.5647771517918 109.96540601004428 203.10005327544866 C 104.22389631565375 213.5108810017219 103.62798199062857 226.34802366561433 101.51557570992583 239.6682594557742 C 100.29705415400649 239.91251834547867 100.83849721314957 239.6682594557742 100.29705415400649 240.21104512350527 C 90.64205206021458 238.27873668914287 87.31090580903926 230.277864513455 83.6886990003389 223.50379686704036 C 74.62961123157223 206.30800947426394 73.11290747996405 178.70130892760596 80.96681021781176 158.84040439600082 C 83.07921649851443 153.75437561579244 92.15186582545775 137.7690226868042 88.52965239813467 132.92726347475107 C 86.70164834039089 128.32435985616297 80.67574304166422 125.66466737047608 77.34460340911161 122.0279393259711 C 73.41776124746436 117.42502502893178 69.19962687649343 111.61711159969796 66.47774471258901 106.53107214103838 C 59.233324476565784 92.96115280803218 55.611111049242766 77.95282475941065 47.750315015718755 64.38833007954635 C 44.114540030219246 58.091888192452366 37.77733773466825 51.551203433330365 32.63842055573711 45.74326864719433 C 26.89691747996924 39.202562531170315 20.56638510157407 34.59965357335655 16.0300604381025 26.85394565552509 C 14.520249982170741 24.139947906937426 12.407850320090871 19.83015976129771 14.824880371150572 16.920775723926024 C 15.42079966014284 14.982959878426264 16.63932121606215 14.206780644951152 19.043011432810154 13.772533423476865 C 22.96985359445732 11.05855836659774 34.15490258348043 14.499901457125116 38.08196646899235 15.94374016510784 C 49.25345389983893 19.580468209612878 58.61717040292982 22.96750470243308 67.98088690602074 28.048095481435745 C 72.21258283516815 30.468969748236585 76.74868246546362 35.07188137566308 82.18555680690731 36.28775651026935 L 88.5363239699463 36.28775651026935 C 98.20489424053748 37.98128410032414 109.07174631843726 36.83054751722606 118.12393748221618 39.001754258857005 C 134.13638492948144 43.12698940432005 148.63234703969178 49.173737070116495 161.63183852828215 55.7198731785081 C 201.19931599865606 75.81962262512688 233.8334551245889 104.39790204210789 255.87847282376958 138.55067462645084 C 259.5008980470234 144.1197644975732 261.01071181226627 149.20576124242857 264.34186468206485 155.01911000325552 C 270.69261860785787 166.89009844996696 278.5465412015739 178.99443240939294 284.8770686160024 190.626597297993 C 291.2278225417953 202.00903592994229 297.2672893986988 213.64115810473825 306.32638378608823 223.08582093537902 C 310.86249665362936 228.1718390371367 328.9806589539172 230.83154220127471 337.1325254729003 233.49667001855443 C 343.17866390161527 235.6678554032832 352.5357022142716 237.6219265209193 357.98592631796123 240.28162968505742 C 368.2501924990241 245.3676477868151 378.52113025189857 251.18099654764208 388.18278406163347 256.75008641876417 C 393.01019575712115 259.6486024625625 408.1223119409681 265.706210113094 409.022629967141 270.53714137576515 Z M 100.99437239939363 59.95367079674292 C 96.82071517383298 59.924096826513086 92.659951025543 60.33100988286889 88.61770655625071 61.164142635109314 L 88.61770655625071 61.70691228516391 L 89.21340246672253 61.70691228516391 C 91.63065589630274 65.58250126235913 95.86212679227401 68.24761840118805 98.88197273731377 71.64010357366507 L 105.83532579718934 83.26680643454452 L 106.43102170766117 82.72401008836239 C 110.6627176368085 80.30313582156141 112.78200728525348 76.42757354049382 112.78200728525348 70.61963875435775 C 110.96734637113273 68.92610582507746 110.66961424179628 67.22715358188067 109.15957544337697 65.53362065260025 C 107.34513956243258 63.11276774270159 103.4182974007853 61.896892608095285 100.99437239939363 59.96454679915458 Z" stroke="none" stroke-linejoin="miter" stroke-linecap="butt" stroke-width="0.9725271164962395" fill="#000000"/></g></svg><svg id="kks93ljqja" width="594.0000000000001" height="420.00000000000006" viewBox="0 0 1122.5197162628174 793.7008094787598" overflow="visible" v:setup="{&quot;paper&quot;:&quot;CUSTOM&quot;,&quot;unit&quot;:&quot;m&quot;,&quot;scale&quot;:{&quot;from&quot;:&quot;1&quot;,&quot;to&quot;:&quot;1&quot;},&quot;width&quot;:&quot;297mm&quot;,&quot;height&quot;:&quot;210mm&quot;}" zoom="{&quot;level&quot;:0.5291666519476312,&quot;scroll_x&quot;:226,&quot;scroll_y&quot;:465}" style="display: none;"/><svg id="kktm2rmom2" width="594.0000000000001" height="420.00000000000006" viewBox="0 0 1122.5197162628174 793.7008094787598" overflow="visible" v:setup="{&quot;paper&quot;:&quot;CUSTOM&quot;,&quot;unit&quot;:&quot;m&quot;,&quot;scale&quot;:{&quot;from&quot;:&quot;1&quot;,&quot;to&quot;:&quot;1&quot;},&quot;width&quot;:&quot;297mm&quot;,&quot;height&quot;:&quot;210mm&quot;}" zoom="{&quot;level&quot;:0.5291666519476312,&quot;scroll_x&quot;:226,&quot;scroll_y&quot;:465}" style="display: none;"/><svg id="kl2bknk9s3" width="831.5999999999999" height="588" viewBox="0 0 1122.5197162628174 793.7008094787598" overflow="visible" v:setup="{&quot;paper&quot;:&quot;CUSTOM&quot;,&quot;unit&quot;:&quot;m&quot;,&quot;scale&quot;:{&quot;from&quot;:&quot;1&quot;,&quot;to&quot;:&quot;1&quot;},&quot;width&quot;:&quot;297mm&quot;,&quot;height&quot;:&quot;210mm&quot;}" zoom="{&quot;level&quot;:0.5291666519476312,&quot;scroll_x&quot;:226,&quot;scroll_y&quot;:465}" style="display: none;"/><svg id="kl2bkogasd" width="831.5999999999999" height="588" viewBox="0 0 1122.5197162628174 793.7008094787598" overflow="visible" v:setup="{&quot;paper&quot;:&quot;CUSTOM&quot;,&quot;unit&quot;:&quot;m&quot;,&quot;scale&quot;:{&quot;from&quot;:&quot;1&quot;,&quot;to&quot;:&quot;1&quot;},&quot;width&quot;:&quot;297mm&quot;,&quot;height&quot;:&quot;210mm&quot;}" zoom="{&quot;level&quot;:0.5291666519476312,&quot;scroll_x&quot;:226,&quot;scroll_y&quot;:465}" style="display: none;"/><svg id="kl2bkoy3sn" width="831.5999999999999" height="588" viewBox="0 0 1122.5197162628174 793.7008094787598" overflow="visible" v:setup="{&quot;paper&quot;:&quot;CUSTOM&quot;,&quot;unit&quot;:&quot;m&quot;,&quot;scale&quot;:{&quot;from&quot;:&quot;1&quot;,&quot;to&quot;:&quot;1&quot;},&quot;width&quot;:&quot;297mm&quot;,&quot;height&quot;:&quot;210mm&quot;}" zoom="{&quot;level&quot;:0.5291666519476312,&quot;scroll_x&quot;:226,&quot;scroll_y&quot;:465}" style="display: none;"/><svg id="klbzfjcgmj" width="712.8" height="503.99999999999994" viewBox="0 0 1122.5197162628174 793.7008094787598" overflow="visible" v:setup="{&quot;paper&quot;:&quot;CUSTOM&quot;,&quot;unit&quot;:&quot;m&quot;,&quot;scale&quot;:{&quot;from&quot;:&quot;1&quot;,&quot;to&quot;:&quot;1&quot;},&quot;width&quot;:&quot;297mm&quot;,&quot;height&quot;:&quot;210mm&quot;}" zoom="{&quot;level&quot;:0.5291666519476312,&quot;scroll_x&quot;:226,&quot;scroll_y&quot;:465}" style="display: none;"/><svg id="klhpdnivq9" width="1069.2" height="756" viewBox="0 0 1122.5197162628174 793.7008094787598" overflow="visible" v:setup="{&quot;paper&quot;:&quot;CUSTOM&quot;,&quot;unit&quot;:&quot;m&quot;,&quot;scale&quot;:{&quot;from&quot;:&quot;1&quot;,&quot;to&quot;:&quot;1&quot;},&quot;width&quot;:&quot;297mm&quot;,&quot;height&quot;:&quot;210mm&quot;}" zoom="{&quot;level&quot;:0.5291666519476312,&quot;scroll_x&quot;:226,&quot;scroll_y&quot;:465}" style="display: none;"/><svg id="klhpdnwwri" width="1069.2" height="756" viewBox="0 0 1122.5197162628174 793.7008094787598" overflow="visible" v:setup="{&quot;paper&quot;:&quot;CUSTOM&quot;,&quot;unit&quot;:&quot;m&quot;,&quot;scale&quot;:{&quot;from&quot;:&quot;1&quot;,&quot;to&quot;:&quot;1&quot;},&quot;width&quot;:&quot;297mm&quot;,&quot;height&quot;:&quot;210mm&quot;}" zoom="{&quot;level&quot;:0.5291666519476312,&quot;scroll_x&quot;:226,&quot;scroll_y&quot;:465}" style="display: none;"/><svg id="klrpngp2w1" width="831.5999999999999" height="588" viewBox="0 0 1122.5197162628174 793.7008094787598" overflow="visible" v:setup="{&quot;paper&quot;:&quot;CUSTOM&quot;,&quot;unit&quot;:&quot;m&quot;,&quot;scale&quot;:{&quot;from&quot;:&quot;1&quot;,&quot;to&quot;:&quot;1&quot;},&quot;width&quot;:&quot;297mm&quot;,&quot;height&quot;:&quot;210mm&quot;}" zoom="{&quot;level&quot;:0.5291666519476312,&quot;scroll_x&quot;:226,&quot;scroll_y&quot;:465}" style="display: none;"/><svg id="klrpnha4xk" width="831.5999999999999" height="588" viewBox="0 0 1122.5197162628174 793.7008094787598" overflow="visible" v:setup="{&quot;paper&quot;:&quot;CUSTOM&quot;,&quot;unit&quot;:&quot;m&quot;,&quot;scale&quot;:{&quot;from&quot;:&quot;1&quot;,&quot;to&quot;:&quot;1&quot;},&quot;width&quot;:&quot;297mm&quot;,&quot;height&quot;:&quot;210mm&quot;}" zoom="{&quot;level&quot;:0.5291666519476312,&quot;scroll_x&quot;:226,&quot;scroll_y&quot;:465}" style="display: none;"/><svg id="km0f6vgv1ld" width="594.0000000000001" height="420.00000000000006" viewBox="0 0 1122.5197162628174 793.7008094787598" overflow="visible" v:setup="{&quot;paper&quot;:&quot;CUSTOM&quot;,&quot;unit&quot;:&quot;m&quot;,&quot;scale&quot;:{&quot;from&quot;:&quot;1&quot;,&quot;to&quot;:&quot;1&quot;},&quot;width&quot;:&quot;297mm&quot;,&quot;height&quot;:&quot;210mm&quot;,&quot;orient&quot;:0}" style="display: none;" zoom="{&quot;level&quot;:0.5291666519476312,&quot;scroll_x&quot;:219,&quot;scroll_y&quot;:458}"/></svg>